Coordinates
version=1
nRows=11
nColumns=36
inDegrees=yes

Units are S.I. units (second, meters, Newtons, ...)
If the header above contains a line with 'inDegrees', this indicates whether rotational values are in degrees (yes) or radians (no).

endheader
time	pelvis_tilt	pelvis_list	pelvis_rotation	pelvis_tx	pelvis_ty	pelvis_tz	hip_flexion_r	hip_adduction_r	hip_rotation_r	knee_angle_r	knee_angle_r_beta	ankle_angle_r	subtalar_angle_r	mtp_angle_r	hip_flexion_l	hip_adduction_l	hip_rotation_l	knee_angle_l	knee_angle_l_beta	ankle_angle_l	subtalar_angle_l	mtp_angle_l	lumbar_extension	lumbar_bending	lumbar_rotation	arm_flex_r	arm_add_r	arm_rot_r	elbow_flex_r	pro_sup_r	arm_flex_l	arm_add_l	arm_rot_l	elbow_flex_l	pro_sup_l
      1.43333330	      8.93459962	      2.90933381	      5.83210001	     -0.83271498	      1.21795258	     -0.12975739	     -8.47214631	     -5.15020288	     -1.22993620	      4.92229994	      0.08591034	     19.57432488	      4.26249502	     -7.49999880	    -10.42753264	     -0.95389404	     -1.91023488	      5.80587294	      0.10133160	     12.66843835	      5.49927311	     -7.49999880	    -10.89441160	     -2.56779279	      5.65653820	      1.45720408	    -13.42213454	     15.27853305	     34.02922670	     79.84312206	      6.05048356	     -9.77941132	     22.71225266	     19.37282490	     89.48020534
      1.45000000	      8.88528870	      2.93998751	      5.90255158	     -0.82514884	      1.21474454	     -0.13419917	     -8.47359486	     -5.19070869	     -1.26590484	      4.92035093	      0.08587632	     19.61618521	      4.25732862	     -7.49999881	    -10.37703109	     -0.90778950	     -1.84829706	      5.77742024	      0.10083501	     12.76368222	      5.50229127	     -7.49999881	    -10.93708489	     -2.54622316	      5.68971002	      1.44044181	    -13.48454411	     15.28206856	     33.96666613	     79.86046486	      5.89844329	     -9.80768280	     22.73066213	     19.25283986	     89.50086405
      1.46666670	      8.91495130	      2.94364085	      5.91745748	     -0.83241970	      1.21387458	     -0.12944105	     -8.47236281	     -5.17719073	     -1.26987957	      4.91672345	      0.08581301	     19.61746787	      4.25784580	     -7.49999881	    -10.29739542	     -0.90649498	     -1.84198549	      5.75419480	      0.10042965	     12.77639429	      5.50182085	     -7.49999881	    -10.93841008	     -2.54023335	      5.68562474	      1.43037949	    -13.49541856	     15.28195722	     33.95971823	     79.86159349	      5.88817967	     -9.80516230	     22.73229933	     19.24676386	     89.50230770
      1.48333330	      8.54328936	      2.97347464	      6.29358480	     -0.82478410	      1.21490867	     -0.13450254	     -8.07532262	     -5.24499495	     -1.79610394	      5.05311198	      0.08819344	     19.79694065	      4.51190218	     -7.49999884	     -9.77030500	     -0.85507853	     -1.27048167	      5.83265778	      0.10179908	     13.18728947	      5.34580048	     -7.49999884	    -10.62792695	     -2.54756218	      5.25333037	      1.68994257	    -13.44685814	     15.58586346	     33.02223046	     80.44450647	      5.91182536	     -9.74322379	     22.95775343	     17.80588542	     90.09547492
      1.50000000	      8.45254576	      3.07455315	      6.42512381	     -0.83076487	      1.22176577	     -0.13816038	     -7.98013722	     -5.38880334	     -1.83652788	      5.05472216	      0.08822154	     19.79548196	      4.46540036	     -7.49999885	     -9.60576160	     -0.69492198	     -1.17063686	      5.80606795	      0.10133500	     13.14887504	      5.43096243	     -7.49999885	    -10.75874418	     -2.51174417	      5.28645225	      1.80699212	    -13.70944382	     15.54985050	     32.93267071	     80.47099641	      5.89385808	     -9.64216394	     22.97254295	     17.81792983	     90.11557584
      1.51666670	      8.43338730	      3.11311322	      6.63422363	     -0.82473030	      1.22269208	     -0.13470490	     -8.02087180	     -5.41944074	     -1.97835180	      5.00481413	      0.08735049	     19.89827813	      4.32651255	     -7.49999885	     -9.62307490	     -0.65882832	     -0.99891528	      5.66541416	      0.09888013	     13.24057291	      5.50716368	     -7.49999885	    -10.84069336	     -2.53309068	      5.19717878	      1.69850440	    -13.84775357	     15.54603978	     32.71364195	     80.53404310	      5.88945259	     -9.73314002	     22.96289119	     17.66733470	     90.17484939
      1.53333330	      8.51664413	      3.17048268	      6.97288567	     -0.82433787	      1.21914026	     -0.13493279	     -8.24836193	     -5.43055274	     -2.19615767	      4.91015041	      0.08569829	     20.02945648	      4.28192795	     -7.49999909	     -9.66850586	     -0.67387504	     -0.84268001	      5.71250597	      0.09970204	     13.05364179	      5.59434330	     -7.49999909	    -10.95650028	     -2.54076602	      4.66381139	      2.10906287	    -13.80260410	     16.07944101	     31.73049386	     82.16134558	      6.06734644	     -9.78268852	     23.54782278	     16.70298594	     91.34646686
      1.55000000	      8.57020577	      3.24689966	      7.00608307	     -0.82489013	      1.21988948	     -0.13499955	     -8.27733685	     -5.49706972	     -2.07975783	      4.97604128	      0.08684830	     19.85815162	      4.14781612	     -7.49999937	     -9.75514268	     -0.57866138	     -0.58579245	      5.66954228	      0.09895218	     13.18933834	      5.47820129	     -7.49999937	    -11.11019556	     -2.61301869	      4.43900330	      2.27637584	    -13.74703294	     16.18388887	     31.27539197	     79.49337668	      5.95098894	     -9.71501708	     23.51046373	     16.35240170	     87.40368234
      1.56666670	      8.58315805	      3.27543297	      7.14981352	     -0.82439340	      1.21938490	     -0.13500717	     -8.30155384	     -5.51614328	     -2.12546814	      5.03825462	      0.08793413	     19.88911985	      4.05110065	     -7.49999947	     -9.76408945	     -0.57560574	     -0.50390541	      5.72156255	      0.09986010	     13.21952596	      5.45342739	     -7.49999947	    -11.18823528	     -2.64803805	      4.70032516	      1.96058391	    -13.85419044	     15.76854231	     31.07002769	     81.45314962	      6.30848591	     -9.68148963	     23.91670610	     15.93938091	     89.90261582
      1.58333330	      8.60517661	      3.27898485	      7.22674628	     -0.82487047	      1.22000071	     -0.13522426	     -8.34960885	     -5.53032609	     -2.24496932	      5.11517745	      0.08927669	     19.94692428	      4.05557384	     -7.49999965	     -9.75664613	     -0.59181626	     -0.37473548	      5.77200205	      0.10074044	     13.35241221	      5.27077168	     -7.49999965	    -11.38253133	     -2.63413597	      4.59052519	      1.67911610	    -13.71433834	     13.98263541	     31.31515699	     84.79696405	      6.21269437	     -9.69999793	     22.32596785	     16.08489665	     93.47967751
      1.60000000	      8.68123096	      3.31678917	      7.35929111	     -0.82444032	      1.21973399	     -0.13521817	     -8.48262727	     -5.55320958	     -2.31455234	      5.23651888	      0.09139450	     19.87726572	      3.73424614	     -7.49999967	     -9.89845778	     -0.59547707	     -0.31134983	      5.76257240	      0.10057586	     13.13196922	      5.19961778	     -7.49999967	    -11.73651648	     -2.68062213	      4.48330456	      1.32490521	    -13.91306179	     13.87726821	     32.15691882	     82.97845124	      5.99115438	     -9.92840164	     22.12786318	     16.96908605	     91.51618719
